<?xml version="1.0" standalone="no"?>
<!DOCTYPE svg PUBLIC "-//W3C//DTD SVG 20010904//EN"
 "http://www.w3.org/TR/2001/REC-SVG-20010904/DTD/svg10.dtd">
<svg version="1.0" xmlns="http://www.w3.org/2000/svg"
 width="500.000000pt" height="500.000000pt" viewBox="0 0 500.000000 500.000000"
 preserveAspectRatio="xMidYMid meet">

<g transform="translate(0.000000,500.000000) scale(0.100000,-0.100000)"
fill="#000000" stroke="none">
<path d="M742 4442 c-104 -37 -173 -120 -194 -229 l-11 -62 -41 -7 c-66 -11
-123 -43 -171 -96 -130 -145 -79 -370 103 -450 82 -37 207 -22 283 34 21 15
19 16 307 -254 122 -115 222 -216 222 -224 0 -12 -40 -14 -262 -14 -243 0
-265 -2 -295 -20 -45 -27 -65 -62 -65 -114 -1 -52 19 -88 65 -116 30 -18 52
-20 293 -20 l261 0 13 -72 c50 -287 218 -566 450 -748 44 -35 79 -69 77 -74
-2 -6 -150 -145 -330 -309 l-326 -298 -38 25 c-58 37 -109 49 -178 43 -226
-18 -339 -270 -205 -455 37 -51 119 -100 183 -108 39 -5 47 -10 47 -27 0 -59
35 -140 82 -192 114 -124 298 -127 411 -6 62 66 80 110 80 196 0 56 -5 82 -27
127 l-27 57 73 69 c40 37 96 89 124 115 l50 46 17 -90 c59 -314 234 -500 533
-565 109 -24 359 -24 468 0 317 69 504 250 571 551 10 41 20 75 24 75 3 -1 55
-48 116 -105 l109 -104 -24 -48 c-18 -35 -26 -69 -28 -124 -3 -66 -1 -83 23
-132 32 -68 89 -120 162 -147 109 -41 207 -18 294 69 58 59 89 125 89 192 0
24 4 27 48 33 125 17 228 126 239 256 11 114 -44 218 -145 278 -42 24 -57 27
-138 27 -85 0 -94 -2 -142 -32 l-50 -31 -189 176 c-349 326 -463 434 -463 441
0 3 26 24 57 46 134 95 279 265 361 422 49 94 106 260 122 356 l12 67 285 0
c328 0 338 2 374 76 24 52 21 97 -12 138 -43 54 -54 56 -364 56 -228 0 -285 3
-285 13 0 11 165 170 446 430 l62 57 58 -30 c77 -40 144 -47 219 -25 83 24
166 108 190 190 48 164 -49 328 -214 360 l-55 11 -13 63 c-30 150 -137 240
-284 241 -210 0 -345 -213 -256 -404 l27 -59 -22 -25 c-33 -35 -318 -296 -328
-300 -4 -2 -29 28 -56 65 -65 92 -202 227 -295 290 -319 218 -710 286 -1077
188 -264 -71 -520 -242 -679 -453 -31 -43 -60 -81 -64 -86 -6 -7 -359 310
-359 322 0 3 12 30 27 60 68 139 9 309 -132 377 -71 35 -145 41 -213 17z m218
-77 c112 -78 138 -226 59 -335 -17 -23 -29 -45 -27 -48 3 -6 139 -135 331
-313 l61 -55 -42 -95 c-22 -52 -52 -134 -67 -183 -14 -50 -27 -92 -29 -94 -2
-2 -117 103 -256 232 -138 130 -257 236 -264 236 -7 0 -21 -10 -32 -21 -52
-59 -176 -77 -259 -38 -116 55 -165 202 -105 319 40 78 155 139 234 125 l35
-7 0 68 c0 82 18 130 67 179 52 52 87 65 175 62 66 -2 81 -6 119 -32z m3298
19 c47 -19 98 -68 124 -118 14 -28 20 -57 19 -107 l0 -69 57 0 c180 0 293
-182 212 -340 -68 -132 -235 -166 -357 -73 l-45 35 -42 -39 c-22 -22 -115
-108 -206 -193 -91 -85 -188 -176 -217 -203 l-51 -50 -11 44 c-23 89 -62 201
-91 260 -16 34 -30 66 -30 73 0 6 90 94 199 195 l199 184 -33 43 c-117 153 -9
373 183 374 29 0 69 -7 90 -16z m-1598 -199 c193 -26 365 -90 518 -192 95 -63
228 -185 291 -266 53 -70 131 -199 125 -209 -7 -11 -2181 -10 -2188 0 -8 13
88 168 146 237 234 277 572 437 938 444 36 0 112 -6 170 -14z m1689 -1141 c26
-33 26 -45 0 -78 l-20 -26 -1801 0 c-1662 0 -1803 1 -1820 17 -26 23 -24 78 4
97 20 14 209 16 1819 16 l1798 0 20 -26z m-647 -179 c8 -8 -18 -139 -43 -215
-28 -85 -95 -220 -149 -301 -65 -96 -231 -257 -334 -324 -632 -411 -1482 -169
-1791 510 -34 74 -75 209 -90 298 l-6 37 1204 0 c662 0 1206 -2 1209 -5z
m-1758 -969 c39 -18 97 -42 128 -52 44 -14 58 -24 58 -38 0 -19 -31 -208 -35
-214 -8 -11 -287 116 -299 136 -5 9 44 168 59 192 9 14 10 14 89 -24z m1211
-71 c14 -49 28 -98 31 -107 4 -13 -11 -25 -63 -51 -71 -36 -205 -87 -228 -87
-9 0 -18 30 -29 93 -9 50 -19 103 -22 117 -4 24 0 27 78 53 46 16 108 41 138
56 30 15 58 25 61 22 4 -3 19 -46 34 -96z m371 -220 l338 -315 25 24 c88 84
241 85 329 3 57 -53 84 -155 62 -237 -17 -66 -99 -143 -169 -160 -28 -7 -67
-9 -85 -6 l-33 6 1 -72 c0 -56 -4 -82 -21 -113 -71 -133 -231 -172 -351 -85
-105 76 -123 250 -35 343 16 16 23 30 17 35 -5 5 -73 68 -150 140 l-141 132
-8 91 c-8 109 -76 396 -121 514 -4 8 -4 15 -1 15 3 0 157 -142 343 -315z
m-1736 291 c0 -2 -7 -23 -16 -47 -41 -111 -65 -231 -76 -377 l-12 -152 -153
-141 c-84 -78 -153 -147 -153 -154 0 -7 7 -19 17 -26 49 -41 70 -170 38 -245
-46 -110 -182 -171 -291 -129 -103 39 -158 122 -156 235 l1 65 -67 1 c-75 0
-111 15 -160 65 -47 48 -66 96 -66 164 0 205 245 309 396 168 l27 -25 328 300
c293 268 343 312 343 298z m608 -121 l82 -7 0 -125 0 -126 -84 7 c-80 7 -230
37 -243 50 -6 5 24 213 33 227 2 4 32 1 66 -6 35 -7 100 -16 146 -20z m396 -2
c23 -113 36 -204 32 -212 -8 -12 -150 -35 -226 -35 l-65 -1 0 120 0 120 50 7
c28 4 77 11 110 16 93 15 93 15 99 -15z m-911 -152 c56 -27 123 -56 150 -66
55 -21 54 -18 30 -152 -19 -109 -7 -106 -147 -36 -143 72 -166 90 -166 130 0
38 21 173 27 173 2 0 49 -22 106 -49z m1347 -73 l22 -92 -24 -19 c-27 -23
-206 -114 -260 -133 l-37 -13 -6 37 c-4 20 -13 71 -20 112 -7 41 -12 77 -9 79
2 2 39 16 81 31 43 15 107 41 143 58 36 16 70 31 77 31 6 1 21 -38 33 -91z
m-985 -54 c39 -8 107 -18 153 -21 l82 -6 0 -129 0 -129 -57 6 c-139 15 -311
59 -320 82 -5 12 21 178 33 212 2 8 11 10 22 6 9 -3 49 -13 87 -21z m616 -101
c11 -60 19 -111 19 -114 0 -22 -324 -79 -342 -61 -5 5 -7 62 -6 128 l3 119 85
7 c47 4 114 14 150 21 36 8 67 12 69 11 2 -2 12 -52 22 -111z m-870 -118 c388
-164 747 -150 1135 44 65 33 121 58 123 55 11 -11 -1 -160 -20 -232 -52 -205
-187 -365 -370 -439 -252 -102 -601 -89 -808 29 -71 41 -160 129 -199 200 -63
110 -102 262 -102 393 l0 74 68 -40 c37 -21 115 -59 173 -84z"/>
<path d="M1803 3816 c-90 -98 -140 -180 -123 -201 24 -29 48 -16 90 44 22 33
65 87 95 119 56 61 64 79 43 100 -21 21 -35 13 -105 -62z"/>
<path d="M3147 3833 c-15 -15 -6 -52 18 -67 32 -21 73 -92 94 -164 13 -43 22
-58 37 -60 36 -5 48 21 35 74 -34 133 -141 260 -184 217z"/>
<path d="M2005 3803 c-9 -9 -34 -39 -54 -67 -74 -99 -100 -176 -66 -190 25 -9
39 2 68 57 15 28 47 79 72 112 48 64 52 74 33 93 -16 16 -34 15 -53 -5z"/>
<path d="M2146 3737 c-30 -30 -66 -99 -66 -126 0 -20 32 -37 49 -27 13 9 81
126 81 141 0 8 -9 19 -20 25 -16 9 -25 6 -44 -13z"/>
<path d="M2957 3753 c-12 -11 -8 -43 9 -68 9 -13 21 -46 28 -72 11 -44 15 -48
42 -48 37 0 42 26 19 95 -26 78 -71 121 -98 93z"/>
<path d="M1940 2797 c-160 -45 -264 -217 -231 -379 25 -119 118 -221 231 -252
74 -21 104 -20 182 4 162 50 261 233 214 394 -30 102 -94 179 -183 218 -55 24
-155 31 -213 15z"/>
<path d="M2895 2797 c-141 -47 -224 -154 -233 -297 -5 -100 22 -174 90 -246
66 -70 130 -98 228 -98 126 0 227 62 288 178 24 45 27 62 27 146 0 111 -20
164 -88 232 -78 79 -217 116 -312 85z"/>
<path d="M2445 2156 c-97 -43 -87 -148 17 -177 55 -14 107 -1 146 37 38 38 40
61 10 99 -39 50 -113 68 -173 41z"/>
</g>
</svg>
